<svg width="1024" height="1024" viewBox="0 0 1024 1024" xmlns="http://www.w3.org/2000/svg" role="img" aria-label="iPhone Security Icon">
  <defs>
    <linearGradient id="bgGradient" x1="0" y1="0" x2="1" y2="1">
      <stop offset="0%" stop-color="#0D1117"/>
      <stop offset="100%" stop-color="#1B2A41"/>
    </linearGradient>
    <linearGradient id="shieldGradient" x1="0" y1="0" x2="1" y2="1">
      <stop offset="0%" stop-color="#58A6FF"/>
      <stop offset="100%" stop-color="#3FB950"/>
    </linearGradient>
    <filter id="softGlow" x="-20%" y="-20%" width="140%" height="140%">
      <feGaussianBlur stdDeviation="14" result="blur"/>
      <feMerge>
        <feMergeNode in="blur"/>
        <feMergeNode in="SourceGraphic"/>
      </feMerge>
    </filter>
  </defs>

  <rect x="0" y="0" width="1024" height="1024" rx="220" fill="url(#bgGradient)"/>

  <circle cx="512" cy="450" r="280" fill="#58A6FF" opacity="0.08"/>

  <path
    d="M512 190
       L748 280
       V474
       C748 640 645 781 512 846
       C379 781 276 640 276 474
       V280
       Z"
    fill="url(#shieldGradient)"
    filter="url(#softGlow)"
  />

  <path
    d="M512 248
       L694 317
       V473
       C694 607 611 719 512 772
       C413 719 330 607 330 473
       V317
       Z"
    fill="#0E1724"
    opacity="0.88"
  />

  <path
    d="M512 362
       C582 362 636 397 666 448
       C636 499 582 534 512 534
       C442 534 388 499 358 448
       C388 397 442 362 512 362Z"
    fill="#58A6FF"
    opacity="0.92"
  />
  <circle cx="512" cy="448" r="54" fill="#0D1117"/>
  <circle cx="528" cy="430" r="16" fill="#A8D8FF"/>

  <path
    d="M512 566
      C472 566 440 598 440 638
      C440 678 472 710 512 710
      C552 710 584 678 584 638
      C584 598 552 566 512 566Z"
    fill="#3FB950"
    opacity="0.95"
  />
  <rect x="482" y="616" width="60" height="74" rx="16" fill="#0D1117"/>
  <circle cx="512" cy="650" r="11" fill="#3FB950"/>
</svg>